<svg xmlns="http://www.w3.org/2000/svg" viewBox="0 0 400 600" width="400" height="600">
  <!-- 背景渐变 -->
  <defs>
    <linearGradient id="bgGradient" x1="0%" y1="0%" x2="100%" y2="100%">
      <stop offset="0%" stop-color="#f0f5f2" />
      <stop offset="100%" stop-color="#fcfbf9" />
    </linearGradient>
    
    <!-- 书籍渐变 -->
    <linearGradient id="bookGradient1" x1="0%" y1="0%" x2="100%" y2="100%">
      <stop offset="0%" stop-color="#a3c2b5" />
      <stop offset="100%" stop-color="#8ba89d" />
    </linearGradient>
    <linearGradient id="bookGradient2" x1="0%" y1="0%" x2="100%" y2="100%">
      <stop offset="0%" stop-color="#d4a5a5" />
      <stop offset="100%" stop-color="#bf8b8b" />
    </linearGradient>
    <linearGradient id="bookGradient3" x1="0%" y1="0%" x2="100%" y2="100%">
      <stop offset="0%" stop-color="#f0f5f2" />
      <stop offset="100%" stop-color="#e0e8e3" />
    </linearGradient>
    <linearGradient id="bookGradient4" x1="0%" y1="0%" x2="100%" y2="100%">
      <stop offset="0%" stop-color="#c2a3c2" />
      <stop offset="100%" stop-color="#a88ba8" />
    </linearGradient>
    
    <!-- 书籍阴影 -->
    <filter id="bookShadow" x="-20%" y="-20%" width="140%" height="140%">
      <feDropShadow dx="2" dy="2" stdDeviation="3" flood-color="rgba(0,0,0,0.1)" />
    </filter>
  </defs>
  
  <rect width="400" height="600" fill="url(#bgGradient)" />
  
  <!-- 漂浮的字母 -->
  <g class="floating-letters">
    <text x="80" y="120" fill="#a3c2b5" font-size="24" font-weight="500" style="animation: float 8s infinite ease-in-out;">R</text>
    <text x="120" y="180" fill="#a3c2b5" font-size="20" font-weight="500" style="animation: float 10s infinite ease-in-out 1s;">E</text>
    <text x="150" y="140" fill="#a3c2b5" font-size="22" font-weight="500" style="animation: float 9s infinite ease-in-out 0.5s;">A</text>
    <text x="180" y="200" fill="#a3c2b5" font-size="18" font-weight="500" style="animation: float 11s infinite ease-in-out 1.5s;">D</text>
    <text x="60" y="250" fill="#a3c2b5" font-size="26" font-weight="500" style="animation: float 12s infinite ease-in-out 2s;">B</text>
    <text x="100" y="300" fill="#a3c2b5" font-size="20" font-weight="500" style="animation: float 8.5s infinite ease-in-out 0.8s;">O</text>
    <text x="130" y="280" fill="#a3c2b5" font-size="22" font-weight="500" style="animation: float 9.5s infinite ease-in-out 1.2s;">O</text>
    <text x="160" y="320" fill="#a3c2b5" font-size="19" font-weight="500" style="animation: float 10.5s infinite ease-in-out 1.8s;">K</text>
    <text x="80" y="380" fill="#a3c2b5" font-size="24" font-weight="500" style="animation: float 11.5s infinite ease-in-out 2.2s;">S</text>
    <text x="120" y="420" fill="#a3c2b5" font-size="20" font-weight="500" style="animation: float 9s infinite ease-in-out 0.3s;">F</text>
    <text x="150" y="390" fill="#a3c2b5" font-size="22" font-weight="500" style="animation: float 10s infinite ease-in-out 1.5s;">O</text>
    <text x="180" y="440" fill="#a3c2b5" font-size="18" font-weight="500" style="animation: float 12s infinite ease-in-out 2.5s;">R</text>
  </g>
  
  <!-- 飞翔的书1 - 更真实的样式 -->
  <g class="flying-book" style="animation: fly 15s infinite ease-in-out;">
    <!-- 书脊 -->
    <rect x="50" y="100" width="8" height="100" rx="2" ry="2" fill="#8ba89d" transform="rotate(15 90 150)" />
    <!-- 封面 -->
    <rect x="58" y="100" width="72" height="100" rx="0" ry="0" fill="url(#bookGradient1)" transform="rotate(15 90 150)" filter="url(#bookShadow)" />
    <!-- 书页 -->
    <rect x="58" y="102" width="70" height="96" rx="0" ry="0" fill="#ffffff" transform="rotate(15 90 150)" />
    <!-- 书脊装饰 -->
    <line x1="54" y1="110" x2="54" y2="190" stroke="rgba(255,255,255,0.3)" stroke-width="1" transform="rotate(15 90 150)" />
    <!-- 书页线条 -->
    <line x1="65" y1="120" x2="120" y2="120" stroke="#e0e8e3" stroke-width="1" transform="rotate(15 90 150)" />
    <line x1="65" y1="140" x2="120" y2="140" stroke="#e0e8e3" stroke-width="1" transform="rotate(15 90 150)" />
    <line x1="65" y1="160" x2="120" y2="160" stroke="#e0e8e3" stroke-width="1" transform="rotate(15 90 150)" />
    <line x1="65" y1="180" x2="120" y2="180" stroke="#e0e8e3" stroke-width="1" transform="rotate(15 90 150)" />
  </g>
  
  <!-- 飞翔的书2 - 更真实的样式 -->
  <g class="flying-book" style="animation: fly 18s infinite ease-in-out 2s;">
    <!-- 书脊 -->
    <rect x="100" y="250" width="6" height="80" rx="2" ry="2" fill="#bf8b8b" transform="rotate(-10 130 290)" />
    <!-- 封面 -->
    <rect x="106" y="250" width="54" height="80" rx="0" ry="0" fill="url(#bookGradient2)" transform="rotate(-10 130 290)" filter="url(#bookShadow)" />
    <!-- 书页 -->
    <rect x="106" y="252" width="52" height="76" rx="0" ry="0" fill="#ffffff" transform="rotate(-10 130 290)" />
    <!-- 书脊装饰 -->
    <line x1="103" y1="260" x2="103" y2="320" stroke="rgba(255,255,255,0.3)" stroke-width="1" transform="rotate(-10 130 290)" />
    <!-- 书页线条 -->
    <line x1="112" y1="270" x2="150" y2="270" stroke="#f5e6e6" stroke-width="1" transform="rotate(-10 130 290)" />
    <line x1="112" y1="290" x2="150" y2="290" stroke="#f5e6e6" stroke-width="1" transform="rotate(-10 130 290)" />
    <line x1="112" y1="310" x2="150" y2="310" stroke="#f5e6e6" stroke-width="1" transform="rotate(-10 130 290)" />
  </g>
  
  <!-- 飞翔的书3 - 更真实的样式 -->
  <g class="flying-book" style="animation: fly 20s infinite ease-in-out 4s;">
    <!-- 书脊 -->
    <rect x="30" y="400" width="7" height="90" rx="2" ry="2" fill="#e0e8e3" transform="rotate(25 65 445)" />
    <!-- 封面 -->
    <rect x="37" y="400" width="63" height="90" rx="0" ry="0" fill="url(#bookGradient3)" transform="rotate(25 65 445)" filter="url(#bookShadow)" />
    <!-- 书页 -->
    <rect x="37" y="402" width="61" height="86" rx="0" ry="0" fill="#ffffff" transform="rotate(25 65 445)" />
    <!-- 书脊装饰 -->
    <line x1="33.5" y1="410" x2="33.5" y2="480" stroke="rgba(255,255,255,0.3)" stroke-width="1" transform="rotate(25 65 445)" />
    <!-- 书页线条 -->
    <line x1="42" y1="420" x2="90" y2="420" stroke="#e0e8e3" stroke-width="1" transform="rotate(25 65 445)" />
    <line x1="42" y1="440" x2="90" y2="440" stroke="#e0e8e3" stroke-width="1" transform="rotate(25 65 445)" />
    <line x1="42" y1="460" x2="90" y2="460" stroke="#e0e8e3" stroke-width="1" transform="rotate(25 65 445)" />
  </g>
  
  <!-- 飞翔的书4 - 更真实的样式 -->
  <g class="flying-book" style="animation: fly 16s infinite ease-in-out 6s;">
    <!-- 书脊 -->
    <rect x="120" y="500" width="5" height="75" rx="2" ry="2" fill="#a88ba8" transform="rotate(-5 147.5 537.5)" />
    <!-- 封面 -->
    <rect x="125" y="500" width="45" height="75" rx="0" ry="0" fill="url(#bookGradient4)" transform="rotate(-5 147.5 537.5)" filter="url(#bookShadow)" />
    <!-- 书页 -->
    <rect x="125" y="502" width="43" height="71" rx="0" ry="0" fill="#ffffff" transform="rotate(-5 147.5 537.5)" />
    <!-- 书脊装饰 -->
    <line x1="122.5" y1="510" x2="122.5" y2="565" stroke="rgba(255,255,255,0.3)" stroke-width="1" transform="rotate(-5 147.5 537.5)" />
    <!-- 书页线条 -->
    <line x1="130" y1="520" x2="160" y2="520" stroke="#e8e0e8" stroke-width="1" transform="rotate(-5 147.5 537.5)" />
    <line x1="130" y1="540" x2="160" y2="540" stroke="#e8e0e8" stroke-width="1" transform="rotate(-5 147.5 537.5)" />
  </g>
  
  <style>
    @keyframes fly {
      0% {
        transform: translateY(0) translateX(0) rotate(0deg);
        opacity: 0.7;
      }
      25% {
        transform: translateY(-50px) translateX(50px) rotate(10deg);
        opacity: 1;
      }
      50% {
        transform: translateY(-100px) translateX(100px) rotate(0deg);
        opacity: 0.8;
      }
      75% {
        transform: translateY(-50px) translateX(150px) rotate(-10deg);
        opacity: 0.9;
      }
      100% {
        transform: translateY(0) translateX(200px) rotate(0deg);
        opacity: 0.7;
      }
    }
    
    @keyframes float {
      0% {
        transform: translateY(0) rotate(0deg);
        opacity: 0.6;
      }
      25% {
        transform: translateY(-15px) rotate(5deg);
        opacity: 1;
      }
      50% {
        transform: translateY(-5px) rotate(0deg);
        opacity: 0.8;
      }
      75% {
        transform: translateY(-20px) rotate(-5deg);
        opacity: 0.9;
      }
      100% {
        transform: translateY(0) rotate(0deg);
        opacity: 0.6;
      }
    }
    
    .flying-book {
      animation-timing-function: cubic-bezier(0.4, 0, 0.2, 1);
    }
    
    .floating-letters text {
      font-family: 'PingFang SC', 'Source Han Sans CN', 'Microsoft YaHei', sans-serif;
      animation-timing-function: cubic-bezier(0.4, 0, 0.2, 1);
    }
  </style>
</svg>